<svg xmlns="http://www.w3.org/2000/svg" width="174.909" height="137" viewBox="0 0 174.909 137">
  <g id="districts" transform="translate(653.044 -11.102)">
    <path id="Path_954" data-name="Path 954" d="M-526.187,228.986c2.16-3.118,4.059-6.465,6.54-9.3,4.031-4.612,5.475-10.1,6.349-15.88.2-1.346.3-2.709.507-4.054.453-2.9.762-5.3-3.6-5.448-1.312-.044-2.533-2.822-4.4-5.082,2.284-.474,3.459-1.03,4.548-.894,10.422,1.3,10.208-2.027,14.85,10.1,7.266,18.986,14.752,37.889,22.141,56.829a21.825,21.825,0,0,1,.786,2.25c1.262,4.7-1.077,7.93-5.952,7.955-12.707.066-25.414.029-38.121.03-21.56,0-43.119-.032-64.678.011-14.861.029-29.722.189-44.583.23-4.994.013-9.99-.128-14.982-.26-4.855-.128-7.32-3.367-5.812-8.024,1.4-4.315,3.2-8.5,4.856-12.73q7.987-20.473,16-40.935c.4-1.03.957-2,1.458-3.036,3.581,2.523,4.489,4.856,3.152,8.393-2.57,6.8-5.253,13.553-7.878,20.33-.436,1.125-.814,2.271-1.377,3.855,5.988,0,11.473.014,16.957-.031.372,0,.8-.394,1.1-.7,3.664-3.684,7.352-7.344,10.949-11.093,4.976-5.186,5.788-10.814,2.218-17.1-1.885-3.317.488-4.888,1.963-7.029,5.3,4.144,7.774,12.931,5.8,19.608-2.111,7.154-8.173,11.135-13.787,16.648,8.5,0,16.043.01,23.588-.008,1.7,0,3.445-.387,5.088-.111a10.843,10.843,0,0,0,9.442-2.609c1.944-1.677,3.555-1.577,4.632,1.166.9,2.289,2.146,4.44,3.6,7.376a37.086,37.086,0,0,1-5.855.208,6.014,6.014,0,0,0-6.109,2.735c-3.706,4.916-5.751,10.45-7.014,17.156,16.787-.517,33.141.634,49.557.149,16.369-.484,32.764-.106,50-.106-2.658-6.737-4.894-12.757-7.5-18.614-.382-.859-2.508-1.311-3.832-1.324-10.661-.1-21.323-.053-31.985-.05h-2.685c1.038-5.463,2.177-6.18,7.254-6.068,8.62.192,17.247.123,25.871.13a13.832,13.832,0,0,0,2.457-.555l-11.977-30.869c-1.808,13.011-5.76,23.542-18.115,28.026Zm-57.469,10.63c-9.626,0-19.351-.073-29.071.127-.859.018-2.276,1.738-2.422,2.806-.778,5.692,1.22,10.739,4.43,15.312a4.048,4.048,0,0,0,2.8,1.414c5.092.217,10.194.31,15.289.232a3.305,3.305,0,0,0,2.474-1.684C-587.924,251.938-585.9,245.975-583.656,239.616Zm-34.077,19.6a27.283,27.283,0,0,1-1.434-3.54c-.893-3.813-2.05-7.615-2.413-11.487-.416-4.433-.094-4.432-4.75-4.4-2.034.013-4.069-.193-6.1-.188-6.616.016-6.608.039-8.945,6.073-1.7,4.382-3.42,8.755-5.292,13.542Z" transform="translate(0 -117.631)"/>
    <path id="Path_955" data-name="Path 955" d="M-418.956,178.457c.418-14.726,11.729-25.724,27.11-26.061,12.845-.281,25.149,11.47,25.657,24.786.262,6.861-2.066,13.245-5.124,19.225-5.626,11-11.513,21.876-17.465,32.709-2.33,4.242-4.724,4.185-7.211.125-8.309-13.561-16.259-27.315-21.24-42.529A73.689,73.689,0,0,1-418.956,178.457Zm26.568,44.833c7.422-13.468,14.891-25.8,19.164-39.68a15.439,15.439,0,0,0,.641-6.031c-.94-8.695-5.565-14.795-13.811-17.733-7.451-2.654-14.258-.764-19.757,4.643-5.995,5.894-8.188,13.255-4.842,21.2,4,9.492,8.64,18.718,13.13,28C-396.4,216.708-394.54,219.542-392.388,223.29Z" transform="translate(-155.392 -93.791)"/>
    <path id="Path_956" data-name="Path 956" d="M-598.331,11.1a26.094,26.094,0,0,1,24.838,33.453c-3.684,12.517-10.2,23.731-16.558,35-1.729,3.062-3.459,6.137-5.419,9.052-1.819,2.7-4.315,2.726-5.982,0-8.464-13.859-16.782-27.818-21.824-43.385A26.025,26.025,0,0,1-598.331,11.1Zm-.506,69.852c.557-.276.84-.32.933-.476,7.247-12.32,14.385-24.7,18.7-38.441a17.078,17.078,0,0,0-.784-11.972c-4.257-10.141-15.172-15.272-24.812-11.689-10.746,3.994-16.4,14.9-12.245,25.572,3.772,9.683,8.674,18.932,13.209,28.309C-602.381,75.268-600.507,78.076-598.837,80.954Z" transform="translate(-18.896 0)"/>
    <path id="Path_957" data-name="Path 957" d="M-499.714,194.888c.962-3.89,2.369-6.421,6.337-6.4,6.3.033,12.6.009,19.325.009-.834,3.424-.976,6.389-4.909,6.391C-485.709,194.891-492.457,194.888-499.714,194.888Z" transform="translate(-101.783 -117.752)"/>
    <path id="Path_958" data-name="Path 958" d="M-362.077,213.868a11.158,11.158,0,0,1,11.35,10.752,11.577,11.577,0,0,1-11.645,11.7,11.162,11.162,0,0,1-10.808-11.3A10.742,10.742,0,0,1-362.077,213.868Zm5.038,11.264a5.3,5.3,0,0,0-4.873-5.182,4.783,4.783,0,0,0-4.882,4.62c-.181,3.139,1.47,5.028,4.5,5.144A4.8,4.8,0,0,0-357.039,225.132Z" transform="translate(-185.779 -134.6)"/>
    <path id="Path_959" data-name="Path 959" d="M-580,83.08c0-6.615,4.484-11.124,11.083-11.136,6.583-.013,11.255,4.718,11.278,11.42A11.322,11.322,0,0,1-568.51,94.307C-575.167,94.3-580,89.58-580,83.08Zm16.139.069a5.263,5.263,0,0,0-4.928-5.118,5.307,5.307,0,0,0-5.125,4.935,5.265,5.265,0,0,0,4.931,5.114A5.279,5.279,0,0,0-563.86,83.149Z" transform="translate(-48.489 -40.388)"/>
  </g>
</svg>
