<svg xmlns="http://www.w3.org/2000/svg" width="113.983" height="137" viewBox="0 0 113.983 137">
  <g id="survey-pending" transform="translate(2390.55 -5.952)">
    <path id="Path_967" data-name="Path 967" d="M-2376.482,142.952a14.241,14.241,0,0,1-10.051-4.142,14.279,14.279,0,0,1-4.017-10.429c.086-12.7.067-25.612.049-38.1v-.045q-.011-7.958-.015-15.917V58.772q0-19.252.007-38.5c.005-6.86,3.817-12.152,9.946-13.811a15.548,15.548,0,0,1,4.019-.481c14.685-.016,30.766-.024,50.607-.024q15.328,0,30.651,0c8.149,0,13.9,5.6,13.981,13.613.115,11.07.079,22.331.046,33.221-.008,2.424-.015,4.822-.021,7.219-.006,2.373-1.479,3.968-3.665,3.968h-.05c-2.151-.023-3.6-1.674-3.6-4.107-.015-9.135-.014-18.426-.012-27.41,0,0,0-7.88,0-11.735,0-5.313-2.285-7.58-7.639-7.58h-79.458c-5.09,0-7.46,2.36-7.461,7.425q0,53.889,0,107.778c0,5,2.35,7.334,7.394,7.335l17.86,0q7.616,0,15.232.008a3.67,3.67,0,0,1,3.761,3.264,3.62,3.62,0,0,1-2.646,3.772,6.985,6.985,0,0,1-1.748.141h-.806c-3.18,0-6.486-.018-9.4-.035s-6.234-.035-9.417-.035c-5.109,0-9.293.048-13.171.15C-2376.236,142.95-2376.359,142.952-2376.482,142.952Z"/>
    <path id="Path_968" data-name="Path 968" d="M-2162.528,283.862q-8.247,0-16.492-.007a3.869,3.869,0,0,1-3.141-1.263,2.536,2.536,0,0,1-.355-2.289,2.5,2.5,0,0,1,2.128-1.992c.548-.1,1.12-.145,1.783-.2.332-.027.676-.055,1.039-.091l1.182-.118v-1.188c0-.981.013-1.958.026-2.934.03-2.224.062-4.525-.072-6.8a6.827,6.827,0,0,1,2.452-6.009c2.295-2.065,4.41-4.215,6.649-6.492.93-.945,1.891-1.923,2.866-2.892l.933-.929-.931-.93q-1.526-1.525-3.017-3.029c-2.51-2.524-4.867-4.9-7.325-7.27a4.83,4.83,0,0,1-1.6-3.824c.047-2.7.038-5.453.028-8.116,0-1.155-.008-2.294-.008-3.441v-1.185l-1.179-.121c-.337-.034-.662-.061-.979-.087a16.481,16.481,0,0,1-1.744-.2,2.819,2.819,0,0,1-2.375-2.717,2.846,2.846,0,0,1,2.479-2.77,4.277,4.277,0,0,1,.745-.071l7.534,0q7.108,0,14.215,0,8.777,0,17.554.015c2.039,0,3.217,1.019,3.232,2.785.014,1.636-.976,2.655-2.789,2.868-.408.048-.844.061-1.349.075-.281.008-.559.016-.857.029l-1.254.056v1.255c0,1.04-.018,2.1-.035,3.124-.04,2.4-.081,4.854.093,7.278a7.293,7.293,0,0,1-2.715,6.527c-2.156,1.922-4.123,3.935-6.2,6.067-.876.9-1.769,1.812-2.669,2.71l-.93.929.93.929q1.425,1.424,2.822,2.839l.028.029c2.231,2.253,4.535,4.579,6.864,6.785a5.383,5.383,0,0,1,1.856,4.487c-.1,2.588-.08,5.22-.058,7.764v.04c.009,1.082.018,2.168.018,3.26v1.225l1.222.084c.333.023.65.038.958.053a15.25,15.25,0,0,1,1.637.134,2.633,2.633,0,0,1,2.432,2.742,2.68,2.68,0,0,1-2.406,2.793,6.836,6.836,0,0,1-1.228.08h-2.428Q-2152.745,283.861-2162.528,283.862Zm.036-26.413c-2.545,2.558-4.95,4.975-7.39,7.458a2.911,2.911,0,0,0-.812,1.9c-.025,2.548-.023,5.039-.021,7.677v3.543h22.01v-3.5c0-2.712,0-5.273-.013-7.9a2.708,2.708,0,0,0-.664-1.8c-2.486-2.516-4.936-4.964-7.529-7.555l-2.708-2.707Zm-8.238-30.964c0,2.653,0,5.158.019,7.7a3.128,3.128,0,0,0,.775,2.074c2.418,2.475,4.829,4.9,7.381,7.462l3.042,3.059.931-.959c.631-.65,1.222-1.3,1.793-1.929a30.778,30.778,0,0,1,3.692-3.643,10.917,10.917,0,0,0,4.422-10.81,21.828,21.828,0,0,1-.072-3.645c.019-.557.041-1.186.041-1.794v-1.313h-22.023Z" transform="translate(-139.667 -141.717)"/>
    <path id="Path_969" data-name="Path 969" d="M-2329.163,88.3c-2.354,0-3.61-.639-4.335-2.206a3.416,3.416,0,0,1,.171-3.306,4.09,4.09,0,0,1,3.459-1.813c1.213-.019,2.518-.028,4.107-.028q1.586,0,3.172.008t3.182.008l39.357,0q7.017,0,14.034.008c2.533,0,4.242,1.461,4.252,3.628a3.5,3.5,0,0,1-2.941,3.553,9.552,9.552,0,0,1-1.717.133q-10.9,0-21.808,0h-1.739q-19.591,0-39.182.014Z" transform="translate(-38.098 -50.385)"/>
    <path id="Path_970" data-name="Path 970" d="M-2266.009,169.934q-5.085-.018-10.17-.015l-11.777,0h-22.486q-9.226,0-18.45-.008h-.463a7.762,7.762,0,0,1-1.818-.145,3.571,3.571,0,0,1-2.609-3.8,3.657,3.657,0,0,1,3.445-3.261c.079,0,.158-.006.236-.006l.342,0h28.451q17.789,0,35.577-.008a3.581,3.581,0,0,1,3.671,2.178,3.329,3.329,0,0,1-.662,3.909,3.9,3.9,0,0,1-3.247,1.153Z" transform="translate(-38.128 -105.304)"/>
    <path id="Path_971" data-name="Path 971" d="M-2325.651,333.121q-1.939,0-3.877-.01c-2.522-.015-4.224-1.481-4.235-3.647a3.379,3.379,0,0,1,1.125-2.633,4.569,4.569,0,0,1,3.062-1.029c3.17-.017,6.493-.025,9.878-.025,3.237,0,6.677.008,10.225.024,2.553.011,4.206,1.435,4.211,3.627.006,2.3-1.612,3.674-4.326,3.685q-1.945.008-3.891.007l-6.08,0Z" transform="translate(-38.151 -214.868)"/>
    <path id="Path_972" data-name="Path 972" d="M-2319.562,251.622l-6.158,0q-1.987,0-3.975-.008c-2.386-.011-4.059-1.5-4.069-3.612a3.4,3.4,0,0,1,.948-2.477,4.285,4.285,0,0,1,3.076-1.122q5.109-.013,10.218-.013t10.219.011c2.45.006,4.034,1.406,4.037,3.567,0,2.2-1.567,3.632-4,3.645q-2.027.01-4.056.009Z" transform="translate(-38.151 -160.193)"/>
  </g>
</svg>
