<svg xmlns="http://www.w3.org/2000/svg" width="136.97" height="137" viewBox="0 0 136.97 137">
  <g id="survey-completed" transform="translate(1997.138 4)">
    <path id="Path_963" data-name="Path 963" d="M-1986.317,133l.052-.674c.007-.089.015-.178.024-.266.016-.169.032-.328.032-.477V110.627c0-29.782,0-60.579.022-90.868,0-.686-.073-.719-.656-.766a11.018,11.018,0,0,1-7.573-4.029,13.854,13.854,0,0,1-2.7-5.966l-.019-.076V6l.115-.163c.018-.026.038-.051.059-.077,1-5.841,5.974-9.756,12.429-9.756h.155c5.645.055,11.773.081,19.286.081q6.511,0,13.021-.017t13.024-.017l21.965,0q10.3,0,20.588-.009a12.014,12.014,0,0,1,7.7,2.407c3.074,2.4,4.566,5.712,4.561,10.128-.026,22.027-.023,44.424-.02,66.083l0,22.1h1.986q2.012,0,4.024-.008t4.027-.008c2.883,0,5.1.018,7.2.058a6.886,6.886,0,0,1,5.442,2.825,7.139,7.139,0,0,1,1.12,6.259c-.942,3.276-3.654,5.169-7.441,5.193q-3.137.02-6.275.017l-7.3-.005h-1.81c-.319,0-.644.022-1.02.046h-.019v8.753h-8.7V133Zm31.094-5.648c17.868,0,37,0,55.872.023.539,0,.665-.085.691-.111s.109-.15.1-.659c-.041-3.481-.035-7.019-.029-10.441q0-2.005,0-4.01a6.463,6.463,0,0,0-.042-1.021,6.813,6.813,0,0,0-1.087-.044h-17.81c-12.251,0-26.5,0-40.643-.018a9.589,9.589,0,0,1-2.913-.439c-4.632-1.505-9.327-3.074-13.868-4.591l-3.086-1.031c-.281-.094-.549-.207-.859-.339-.157-.066-.328-.139-.522-.219l-1.084-.442v23.342Zm65.4-13.14q0-.212,0-.419c.008-.858.015-1.669-.033-2.46a.74.74,0,0,0-.142-.2c-.47-.027-.98-.039-1.633-.039-.313,0-.627,0-.943.005l-.348,0v3.112Zm19.594-8.711c.434.007.859.013,1.279.013.627,0,1.138-.015,1.61-.046a1.477,1.477,0,0,0,1.517-1.5,1.382,1.382,0,0,0-1.389-1.55c-.5-.038-1.036-.055-1.695-.055-.443,0-.888.008-1.337.015l-.77.012v3.1Zm-6.565-.063v-2.99h-2.954v2.99Zm-8.738-.019v-2.99h-70.861v2.99Zm-78.334-.016v-2.974l-4.471,1.489Zm-16.633-1.751,1.123-.374q2.337-.778,4.635-1.546c4.563-1.524,8.873-2.963,13.28-4.392a11.287,11.287,0,0,1,3.415-.56c12.994-.021,25.809-.023,37.721-.023h21.625V19.29h-81.8Zm90.678-6.963V83.771q0-37.6-.013-75.194a10.043,10.043,0,0,0-.286-2.586,5.815,5.815,0,0,0-5.713-4.312,6.679,6.679,0,0,0-1.028.081,6.054,6.054,0,0,0-4.892,5.948,6,6,0,0,0,5.5,5.8c.268.022.557.033.911.033.265,0,.535-.006.812-.012.3-.006.612-.013.934-.013h.626v83.17ZM-1920.2,1.672q-32.124,0-64.247,0c-.628,0-1.176.018-1.675.055a5.78,5.78,0,0,0-4.294,2.458,5.834,5.834,0,0,0-.88,4.917c.773,2.823,3.055,4.442,6.26,4.442q18.315,0,36.63,0l42.5,0c.081,0,.163,0,.247-.005a11.434,11.434,0,0,1-.013-11.87Z"/>
    <rect id="Rectangle_219" data-name="Rectangle 219" width="46.965" height="5.493" transform="translate(-1948.81 48.646)"/>
    <rect id="Rectangle_220" data-name="Rectangle 220" width="46.979" height="5.381" transform="translate(-1948.819 70.59)"/>
    <rect id="Rectangle_221" data-name="Rectangle 221" width="38.272" height="5.353" transform="translate(-1948.867 35.558)"/>
    <rect id="Rectangle_222" data-name="Rectangle 222" width="33.887" height="5.46" transform="translate(-1935.771 57.408)"/>
    <rect id="Rectangle_223" data-name="Rectangle 223" width="33.909" height="5.378" transform="translate(-1948.869 26.802)"/>
    <rect id="Rectangle_224" data-name="Rectangle 224" width="33.899" height="5.352" transform="translate(-1948.867 79.346)"/>
    <path id="Path_964" data-name="Path 964" d="M-1932.444,98.251l4.036-3.705,2.812,2.633,11.519-9.569,3.744,4.434-15.494,12.922Z" transform="translate(-44.429 -62.914)"/>
    <path id="Path_965" data-name="Path 965" d="M-1932.569,168.278l4.141-3.52,2.5,2.785,11.844-9.86,3.586,4.305-15.481,12.9Z" transform="translate(-44.343 -111.039)"/>
    <path id="Path_966" data-name="Path 966" d="M-1932.557,238.234l4.077-4.016,2.654,3.159,11.747-9.76,3.6,4.282-15.478,12.91Z" transform="translate(-44.352 -159.066)"/>
    <rect id="Rectangle_225" data-name="Rectangle 225" width="9.864" height="5.425" transform="translate(-1948.852 57.432)"/>
    <rect id="Rectangle_226" data-name="Rectangle 226" width="9.775" height="5.411" transform="translate(-1911.651 26.796)"/>
    <rect id="Rectangle_227" data-name="Rectangle 227" width="9.811" height="5.347" transform="translate(-1911.646 79.338)"/>
  </g>
</svg>
