<svg xmlns="http://www.w3.org/2000/svg" width="140.032" height="137" viewBox="0 0 140.032 137">
  <g id="total-surveyors" transform="translate(1410.512 2)">
    <path id="Path_960" data-name="Path 960" d="M-1293.316,236.093V178.464h6.165v43.555c5.035-.447,9.867-5.663,10.138-11.131.137-2.779.117-5.622.1-8.371-.007-1.037-.015-2.074-.014-3.111v-.8c.007-10.7.014-21.76,0-32.639-.012-7.91-5.682-13.7-13.481-13.773-5.643-.051-11.326-.077-16.89-.077-5.749,0-11.539.028-17.208.083a13.034,13.034,0,0,0-12.969,10.49l15.285,0q5.357,0,10.714.008c1.923,0,3.12.418,3.767,1.3s.676,2.147.094,3.971c-2.678,8.4-5.366,16.8-8.081,25.287l-2.913,9.1c4.968,2.246,4.605,6.695,3.708,10.362-.192.784-.332,1.607-.467,2.4-.107.629-.218,1.281-.355,1.921-.8,3.746-3.064,6.085-6.539,6.765-1.04.2-1.149.462-1.131,1.4.046,2.418.038,4.784.029,7.288q-.005,1.467-.007,2.955v.632h-6.417v-.632q0-1.563-.009-3.116c-.011-2.526-.022-5.137.036-7.7a3.015,3.015,0,0,0-1.343-2.763,15.047,15.047,0,0,1-2.662-3.223c-.375-.552-.764-1.123-1.171-1.64-.062-.079-.127-.164-.193-.251-.217-.285-.67-.879-.876-.929-1.373-.055-2.868-.081-4.838-.081q-1.22,0-2.468.008-.984,0-1.992.008v20.32h-6.355V215.755l-1.165.005c-.544,0-1.07.006-1.588.006-.752,0-1.37-.006-1.946-.02-1.629-.038-2.708-.446-3.3-1.248s-.66-1.961-.209-3.538c.2-.712.414-1.422.64-2.188l.1-.328h-30.67v27.618h-6.338V208.449c-.439-.032-.869-.057-1.289-.081a26.727,26.727,0,0,1-3.687-.384,11.316,11.316,0,0,1-9.292-11.3c-.009-3.072.021-6.195.05-9.215.058-6.123.119-12.455-.137-18.661-.457-11.109,8.128-17.979,16.3-19.659a27.232,27.232,0,0,1,5.4-.507q3.16-.014,6.321-.012,3.227,0,6.453.006t6.452.006c4.722,0,8.355-.016,11.78-.051h.257c6.681,0,11.646,2.657,15.179,8.122a19.92,19.92,0,0,1,13.761-10.431,21.575,21.575,0,0,1,4.3-.408l4.449-.013c5.139-.015,10.453-.031,15.68-.031,5.1,0,9.606.015,13.767.046a20.165,20.165,0,0,1,13.034,4.608,19.753,19.753,0,0,1,6.679,11.947,20.321,20.321,0,0,1,.2,3.475v.161c.012,13.842.01,27.345.007,42.3,0,10.72-5.764,17.959-16.224,20.384a2.465,2.465,0,0,0-.332.126l-.022.009v7.213Zm-35.757-22.6c0,.059.007.131.01.21a5.062,5.062,0,0,0,.073.777c.379,1.891,2.072,3.066,4.42,3.067h.114a3.1,3.1,0,0,0,2.2-1.381,33.738,33.738,0,0,0,1.215-5.96c.05-.348.1-.7.15-1.041a1.191,1.191,0,0,0-.337-.732,7.034,7.034,0,0,0-3.144-.834C-1327.165,207.6-1328.965,209.858-1329.074,213.495Zm-6-3.814c1.3-4.874,4.293-7.637,8.894-8.217a1.646,1.646,0,0,0,1.7-1.424c2.087-6.666,4.232-13.436,6.306-19.984l2.209-6.976c.31-.981.617-1.963.956-3.048l.262-.84h-1.6c-1.963,0-3.9,0-5.832.009s-3.87.008-5.805.008c-4.021,0-7.127-.019-10.071-.061h-.088c-1.306,0-1.756.36-2.19,1.751-2.807,8.989-5.71,18.112-8.516,26.934q-1.711,5.379-3.42,10.758c-.109.343-.191.707-.275,1.09Zm-54.164-54.651a16.09,16.09,0,0,0-10.465,3.6c-2.833,2.315-4.218,4.869-4.234,7.807-.054,9.951-.057,20.231-.007,30.553a4.8,4.8,0,0,0,4.686,4.822c6.07.034,12.522.051,19.724.051,7.62,0,15.239-.019,21.687-.037a1.6,1.6,0,0,0,.949-.428c1.067-3.139,2.061-6.293,3.113-9.631q.323-1.024.651-2.062h-1.639l-9.067-.009q-13.186-.012-26.372-.028c-3.566-.005-4.655-1.107-4.659-4.715-.007-5.623-.007-10.767,0-15.725,0-1.808.332-4.218,3.148-4.278h.1c3.2,0,3.21,3.3,3.212,4.379q.006,2.8,0,5.6,0,3.288.006,6.577c0,.456.043.924.083,1.377l0,.037h32.252l-.545-.513c-1.121-1.054-2.1-1.975-3.073-2.9-2.191-2.091-1.5-3.837-.536-4.934a2.888,2.888,0,0,1,2.178-1.08,4.267,4.267,0,0,1,2.943,1.528c1.278,1.3,2.525,2.654,3.845,4.085q.561.608,1.148,1.243l3.458-10.663a11.117,11.117,0,0,0-1.476-10.081,11.154,11.154,0,0,0-9-4.571q-6.58,0-13.151,0h-18.97Z" transform="translate(0 -101.093)"/>
    <path id="Path_961" data-name="Path 961" d="M-1339.995,44.964a22.455,22.455,0,0,1-22.336-22.383,22.124,22.124,0,0,1,6.512-15.767A22.368,22.368,0,0,1-1339.879.227h.072a22.236,22.236,0,0,1,15.778,6.536,22.209,22.209,0,0,1,6.507,15.782,22.244,22.244,0,0,1-6.55,15.849,22.26,22.26,0,0,1-15.853,6.571Zm.094-38.431a16,16,0,0,0-15.957,15.973,15.969,15.969,0,0,0,15.914,15.987,16.012,16.012,0,0,0,16.063-15.887,16.248,16.248,0,0,0-15.963-16.074Z" transform="translate(-32.95 -1.523)"/>
    <path id="Path_962" data-name="Path 962" d="M-1131.355,41.152a21.292,21.292,0,0,1-15.176-6.31,21.467,21.467,0,0,1-6.3-15.325A21.569,21.569,0,0,1-1131.351-2h.2a21.636,21.636,0,0,1,21.369,21.633,21.61,21.61,0,0,1-21.487,21.518Zm.011-36.689a15.086,15.086,0,0,0-10.709,4.45,14.96,14.96,0,0,0-4.453,10.668,15.174,15.174,0,0,0,15.173,15.12,14.973,14.973,0,0,0,10.679-4.423,15.053,15.053,0,0,0,4.406-10.709,15.12,15.12,0,0,0-15.09-15.106V3.83Z" transform="translate(-176.219)"/>
  </g>
</svg>
